# xmcd CD database file
#
# Track frame offsets:
#	150
#	22535
#	40392
#	67420
#	88445
#	113344
#	133427
#	153843
#	183346
#	221812
#
# Disc length: 3507 seconds
#
# Revision: 1
# Processed by: cddbd v1.5.2PL0 Copyright (c) Steve Scherf et al.
# Submitted via: CDex 1.51
#
DISCID=8d0db10a
DTITLE=Ellis Marsalis, Arturo O'Farrill, Eliane Elias, Rebeca Mauleon And Angel Echevarria - A Jazz Piano Christmas 2008
DYEAR=2008
DGENRE=Jazz
TTITLE0=Various Artist - O Tannenbaum (Arturo O'Farrill)
TTITLE1=Various Artist - Abreme La Puerta (Arturo O'Farrill)
TTITLE2=Various Artist - Mi Burrito Sabanero (Angel Echevarria)
TTITLE3=Various Artist - La Comparsa (Rebeca Mauleon)
TTITLE4=Various Artist - Linus and Lucy (Rebeca Mauleon)
TTITLE5=Various Artist - I'll Be Home for Christmas..I Love My Wife (Eliane Elias)
TTITLE6=Various Artist - Sleigh Ride (Eliane Elias)
TTITLE7=Various Artist - Silent Night (Ellis Marsalis)
TTITLE8=Various Artist - Winter Wonderland (Ellis Marsalis)
TTITLE9=Various Artist - Jingle Bells (Echevarria, O'Farrill, Mauleon, Elias, Marsalis)
EXTD=YEAR: 2008
EXTT0=
EXTT1=
EXTT2=
EXTT3=
EXTT4=
EXTT5=
EXTT6=
EXTT7=
EXTT8=
EXTT9=
PLAYORDER=
